<svg width="17" height="16" viewBox="0 0 17 16" fill="none" xmlns="http://www.w3.org/2000/svg">
<path d="M1.95513 0C0.904605 0 0.0500488 0.854615 0.0500488 1.90508C0.0500488 2.95555 0.904251 3.81011 1.95513 3.81011C3.00601 3.81011 3.86021 2.95555 3.86021 1.90508C3.86021 0.854615 3.0056 0 1.95513 0Z" fill="#158ACC"/>
<path d="M8.12115 0C7.07068 0 6.21606 0.854615 6.21606 1.90508C6.21606 2.95555 7.07068 3.81011 8.12115 3.81011C9.17167 3.81011 10.0264 2.95555 10.0264 1.90508C10.0264 0.854615 9.17203 0 8.12115 0Z" fill="#158ACC"/>
<path d="M14.3865 3.81016C15.4368 3.81016 16.2916 2.95561 16.2916 1.90514C16.2916 0.854674 15.4375 0 14.3865 0C13.3355 0 12.4814 0.854615 12.4814 1.90508C12.4814 2.95555 13.3362 3.81016 14.3865 3.81016Z" fill="#158ACC"/>
<path d="M1.90544 9.91465C2.9559 9.91465 3.8107 9.06027 3.8107 8.00963C3.8107 6.95893 2.9559 6.10437 1.90544 6.10437C0.854969 6.10437 0 6.95899 0 8.00963C0 9.06027 0.854969 9.91465 1.90544 9.91465Z" fill="#158ACC"/>
<path d="M8.07134 9.91465C9.12163 9.91465 9.97642 9.06027 9.97642 8.00963C9.97642 6.95893 9.12234 6.10437 8.07134 6.10437C7.02052 6.10437 6.16626 6.95893 6.16626 8.00963C6.16626 9.06027 7.02087 9.91465 8.07134 9.91465Z" fill="#158ACC"/>
<path d="M14.3372 9.91465C15.3879 9.91465 16.2423 9.06027 16.2423 8.00963C16.2423 6.95893 15.3879 6.10437 14.3372 6.10437C13.2865 6.10437 12.4314 6.95893 12.4314 8.00963C12.4314 9.06027 13.2862 9.91465 14.3372 9.91465Z" fill="#158ACC"/>
<path d="M1.94914 12.1898C0.89867 12.1898 0.0437012 13.0442 0.0437012 14.0949C0.0437012 15.1452 0.89867 15.9999 1.94914 15.9999C2.99961 15.9999 3.85416 15.1456 3.85416 14.0949C3.85416 13.0442 2.99961 12.1898 1.94914 12.1898Z" fill="#158ACC"/>
<path d="M8.11515 12.1898C7.06463 12.1898 6.20972 13.0442 6.20972 14.0949C6.20972 15.1452 7.06433 15.9999 8.11515 15.9999C9.16544 15.9999 10.0202 15.1456 10.0202 14.0949C10.0202 13.0442 9.16544 12.1898 8.11515 12.1898Z" fill="#158ACC"/>
<path d="M14.3804 12.1898C13.3301 12.1898 12.4753 13.0442 12.4753 14.0949C12.4753 15.1452 13.3301 15.9999 14.3804 15.9999C15.4311 15.9999 16.2855 15.1456 16.2855 14.0949C16.2855 13.0442 15.4307 12.1898 14.3804 12.1898Z" fill="#158ACC"/>
</svg>
