<svg width="16" height="18" viewBox="0 0 16 18" fill="none" xmlns="http://www.w3.org/2000/svg">
<path d="M7.39503 8.67065C8.58622 8.67065 9.6177 8.24342 10.4605 7.4005C11.3033 6.55771 11.7305 5.52651 11.7305 4.33519C11.7305 3.14427 11.3033 2.11294 10.4603 1.26988C9.61742 0.427229 8.58608 0 7.39503 0C6.20371 0 5.17251 0.427229 4.32972 1.27001C3.48694 2.1128 3.05957 3.14414 3.05957 4.33519C3.05957 5.52651 3.48694 6.55785 4.32986 7.40064C5.17278 8.24328 6.20412 8.67065 7.39503 8.67065Z" fill="white"/>
<path d="M14.981 13.841C14.9567 13.4903 14.9076 13.1077 14.8352 12.7037C14.7621 12.2966 14.6681 11.9118 14.5555 11.5601C14.4391 11.1966 14.2809 10.8377 14.0854 10.4936C13.8824 10.1366 13.644 9.82568 13.3765 9.56984C13.0968 9.30218 12.7543 9.08699 12.3582 8.93002C11.9635 8.77388 11.5261 8.69478 11.0582 8.69478C10.8745 8.69478 10.6968 8.77017 10.3536 8.99361C10.1424 9.13135 9.89535 9.29065 9.61959 9.46684C9.3838 9.61708 9.06437 9.75784 8.66983 9.88528C8.28489 10.0098 7.89406 10.073 7.5083 10.073C7.12255 10.073 6.73185 10.0098 6.3465 9.88528C5.95237 9.75798 5.63294 9.61721 5.39742 9.46698C5.12428 9.29243 4.87709 9.13313 4.66272 8.99347C4.31994 8.77003 4.1421 8.69464 3.95836 8.69464C3.49034 8.69464 3.05309 8.77388 2.65854 8.93016C2.26276 9.08685 1.92013 9.30205 1.64012 9.56997C1.37274 9.82595 1.1342 10.1367 0.9315 10.4936C0.736081 10.8377 0.577879 11.1965 0.461424 11.5603C0.348952 11.912 0.254882 12.2966 0.181823 12.7037C0.109451 13.1071 0.0602872 13.4899 0.0359801 13.8414C0.0120849 14.1859 0 14.5433 0 14.9044C0 15.844 0.29869 16.6046 0.887692 17.1656C1.46942 17.7192 2.23914 18 3.17517 18H11.8423C12.7783 18 13.5477 17.7193 14.1296 17.1656C14.7187 16.605 15.0174 15.8442 15.0174 14.9042C15.0173 14.5415 15.0051 14.1838 14.981 13.841Z" fill="white"/>
</svg>
