<svg width="11" height="20" viewBox="0 0 11 20" fill="none" xmlns="http://www.w3.org/2000/svg">
<path d="M10.1896 0.404019L7.69974 0.400024C4.90253 0.400024 3.09484 2.25465 3.09484 5.12517V7.30378H0.59145C0.375127 7.30378 0.199951 7.47915 0.199951 7.69548V10.852C0.199951 11.0684 0.375327 11.2435 0.59145 11.2435H3.09484V19.2085C3.09484 19.4248 3.27002 19.6 3.48634 19.6H6.75256C6.96888 19.6 7.14405 19.4246 7.14405 19.2085V11.2435H10.0711C10.2874 11.2435 10.4626 11.0684 10.4626 10.852L10.4638 7.69548C10.4638 7.59161 10.4225 7.49214 10.3491 7.41863C10.2758 7.34513 10.176 7.30378 10.0721 7.30378H7.14405V5.45694C7.14405 4.56928 7.35558 4.11866 8.5119 4.11866L10.1892 4.11806C10.4053 4.11806 10.5805 3.94268 10.5805 3.72656V0.795518C10.5805 0.579594 10.4055 0.404419 10.1896 0.404019Z" fill="white"/>
</svg>
