<svg width="18" height="16" viewBox="0 0 18 16" fill="none" xmlns="http://www.w3.org/2000/svg">
<path d="M17.9228 3.93075C17.5852 1.98736 16.159 0.469207 14.2411 0.0924174C12.2547 -0.297666 10.2795 0.569088 9.26036 2.27736C9.18266 2.40712 9.00345 2.71385 9.00004 2.70921C8.9966 2.71385 8.8174 2.40709 8.73972 2.27736C7.72062 0.569088 5.74535 -0.297666 3.75899 0.0924174C1.84119 0.469207 0.414857 1.98739 0.0772146 3.93075C-0.187753 5.45517 0.249153 6.89627 1.08241 8.16543C1.74434 9.17406 2.48274 10.1524 3.31073 11.0274C5.01053 12.8245 7.00518 14.29 8.99981 15.8524C10.9946 14.29 12.9893 12.8245 14.6889 11.0274C15.5169 10.1524 16.2553 9.17386 16.9172 8.16543C17.7507 6.89627 18.1878 5.45541 17.9228 3.93075ZM3.97931 2.36598C3.54017 2.37162 3.10753 2.57403 2.79168 2.92115C2.46071 3.2852 2.3001 3.75137 2.33983 4.23389C2.36083 4.49018 2.17013 4.7148 1.91422 4.73577C1.9011 4.73677 1.8884 4.73739 1.87566 4.73739C1.63593 4.73739 1.43229 4.55315 1.41232 4.30995C1.35237 3.5782 1.60422 2.84385 2.10331 2.29492C2.59168 1.75772 3.27114 1.44431 3.96716 1.43522C4.22184 1.42937 4.43495 1.63743 4.43857 1.89434C4.44166 2.15145 4.23643 2.36254 3.97931 2.36598Z" fill="#158ACC"/>
</svg>
