<svg width="20" height="20" viewBox="0 0 20 20" fill="none" xmlns="http://www.w3.org/2000/svg">
<path d="M13.5999 0.400024H6.3999C3.0867 0.400024 0.399902 3.08682 0.399902 6.40002V13.6C0.399902 16.9132 3.0867 19.6 6.3999 19.6H13.5999C16.9131 19.6 19.5999 16.9132 19.5999 13.6V6.40002C19.5999 3.08682 16.9131 0.400024 13.5999 0.400024ZM17.7999 13.6C17.7999 15.916 15.9159 17.8 13.5999 17.8H6.3999C4.0839 17.8 2.1999 15.916 2.1999 13.6V6.40002C2.1999 4.08402 4.0839 2.20002 6.3999 2.20002H13.5999C15.9159 2.20002 17.7999 4.08402 17.7999 6.40002V13.6Z" fill="white"/>
<path d="M9.99995 5.19995C7.34915 5.19995 5.19995 7.34915 5.19995 9.99995C5.19995 12.6508 7.34915 14.8 9.99995 14.8C12.6508 14.8 14.8 12.6508 14.8 9.99995C14.8 7.34915 12.6508 5.19995 9.99995 5.19995ZM9.99995 13C8.34635 13 6.99995 11.6536 6.99995 9.99995C6.99995 8.34515 8.34635 6.99995 9.99995 6.99995C11.6536 6.99995 13 8.34515 13 9.99995C13 11.6536 11.6536 13 9.99995 13Z" fill="white"/>
<path d="M15.1599 5.47964C15.5131 5.47964 15.7995 5.19328 15.7995 4.84004C15.7995 4.4868 15.5131 4.20044 15.1599 4.20044C14.8066 4.20044 14.5203 4.4868 14.5203 4.84004C14.5203 5.19328 14.8066 5.47964 15.1599 5.47964Z" fill="white"/>
</svg>
