<svg width="20" height="11" viewBox="0 0 20 11" fill="none" xmlns="http://www.w3.org/2000/svg">
<path d="M19.4981 9.89306C19.4748 9.84296 19.4532 9.8014 19.433 9.7681C19.0999 9.16814 18.4633 8.43174 17.5237 7.55868L17.5038 7.53868L17.4939 7.52888L17.4838 7.51883H17.4737C17.0473 7.11229 16.7772 6.83894 16.6641 6.69899C16.4572 6.4324 16.4108 6.16255 16.5239 5.88912C16.6038 5.68255 16.904 5.24628 17.4236 4.57972C17.697 4.22647 17.9135 3.94335 18.0733 3.73005C19.2264 2.19716 19.7263 1.21762 19.5729 0.791048L19.5133 0.691364C19.4733 0.631351 19.37 0.57645 19.2036 0.52638C19.0368 0.476416 18.8236 0.468153 18.5636 0.501451L15.6847 0.521338C15.638 0.504812 15.5714 0.506353 15.4847 0.52638C15.398 0.546408 15.3547 0.556457 15.3547 0.556457L15.3046 0.581492L15.2648 0.611568C15.2315 0.631456 15.1948 0.666435 15.1548 0.716434C15.115 0.766258 15.0817 0.824731 15.0551 0.891361C14.7416 1.69776 14.3853 2.4475 13.9853 3.14056C13.7387 3.55383 13.5122 3.91198 13.3054 4.21523C13.0989 4.51838 12.9256 4.74173 12.7857 4.8849C12.6457 5.02821 12.5193 5.14302 12.4058 5.22975C12.2924 5.31651 12.2059 5.35317 12.146 5.33976C12.086 5.32635 12.0294 5.31305 11.9759 5.29974C11.8826 5.23973 11.8076 5.15811 11.7511 5.05482C11.6943 4.95153 11.6561 4.82153 11.6361 4.66491C11.6162 4.50819 11.6044 4.37339 11.6011 4.26005C11.5979 4.14685 11.5994 3.98673 11.6061 3.78015C11.6131 3.57347 11.6162 3.43363 11.6162 3.36031C11.6162 3.10702 11.6211 2.83213 11.631 2.53556C11.6411 2.239 11.6493 2.00402 11.6561 1.83091C11.6629 1.65763 11.666 1.4743 11.666 1.28103C11.666 1.08775 11.6543 0.936179 11.631 0.826166C11.6081 0.716294 11.5728 0.609643 11.5263 0.506248C11.4796 0.402958 11.4112 0.323057 11.3214 0.266335C11.2314 0.209683 11.1196 0.164726 10.9865 0.131323C10.6333 0.0513867 10.1835 0.00814498 9.63686 0.00142238C8.39735 -0.0118828 7.60089 0.0681581 7.24768 0.24144C7.10773 0.314653 6.98108 0.414687 6.86785 0.541226C6.74786 0.687898 6.73112 0.767939 6.81775 0.781104C7.21767 0.841012 7.50079 0.984323 7.66742 1.2109L7.72747 1.33096C7.77418 1.41758 7.82081 1.57094 7.86749 1.79082C7.91409 2.01071 7.94417 2.25395 7.9574 2.5204C7.99066 3.00698 7.99066 3.42351 7.9574 3.77C7.92403 4.11663 7.89252 4.38648 7.86244 4.57976C7.83237 4.77303 7.78741 4.92965 7.72747 5.04957C7.66742 5.16953 7.62747 5.24285 7.60744 5.26946C7.58745 5.29607 7.57078 5.31284 7.55755 5.31942C7.47092 5.35261 7.38083 5.36952 7.28759 5.36952C7.19421 5.36952 7.08098 5.32282 6.94772 5.22947C6.81449 5.13612 6.67622 5.0079 6.53291 4.8446C6.3896 4.68126 6.22798 4.45301 6.04797 4.15981C5.86811 3.8666 5.68149 3.52007 5.48821 3.12022L5.3283 2.83024C5.22834 2.64368 5.09179 2.37205 4.91851 2.01558C4.74512 1.65896 4.59186 1.31401 4.45864 0.980786C4.40538 0.840837 4.32538 0.734291 4.21876 0.660973L4.16873 0.630896C4.13546 0.604286 4.08207 0.576029 4.00882 0.545918C3.93547 0.515841 3.85893 0.494273 3.77888 0.481003L1.03981 0.500891C0.759912 0.500891 0.569998 0.5643 0.469999 0.690944L0.429979 0.750852C0.409986 0.78422 0.399902 0.837511 0.399902 0.910864C0.399902 0.984183 0.419895 1.07417 0.459916 1.18071C0.85977 2.12048 1.2946 3.0268 1.76442 3.89983C2.23423 4.77286 2.64248 5.47611 2.98894 6.00894C3.33547 6.54216 3.68869 7.04541 4.04859 7.51845C4.4085 7.99165 4.64673 8.29491 4.76329 8.42813C4.87999 8.5616 4.97166 8.66139 5.03829 8.72802L5.28825 8.9679C5.44819 9.12788 5.68306 9.31947 5.99297 9.54268C6.30294 9.76603 6.64611 9.98592 7.02264 10.2027C7.39925 10.4191 7.83737 10.5957 8.33726 10.7323C8.83708 10.869 9.32356 10.9239 9.79677 10.8974H10.9464C11.1796 10.8773 11.3562 10.804 11.4763 10.6774L11.516 10.6273C11.5428 10.5876 11.5678 10.5258 11.5909 10.4426C11.6143 10.3593 11.6259 10.2675 11.6259 10.1677C11.6191 9.88119 11.6409 9.62297 11.6908 9.39307C11.7406 9.16324 11.7974 8.98996 11.8609 8.87326C11.9244 8.75666 11.996 8.65828 12.0758 8.57852C12.1557 8.49858 12.2126 8.45016 12.246 8.43349C12.2792 8.41672 12.3057 8.40534 12.3257 8.39851C12.4856 8.34522 12.6739 8.39683 12.8907 8.55359C13.1073 8.7102 13.3105 8.90358 13.5005 9.13341C13.6905 9.36345 13.9187 9.62153 14.1852 9.90805C14.4519 10.1947 14.6851 10.4077 14.885 10.5479L15.0848 10.6678C15.2183 10.7479 15.3916 10.8212 15.6049 10.8878C15.8178 10.9544 16.0044 10.9711 16.1645 10.9378L18.7236 10.8979C18.9767 10.8979 19.1736 10.856 19.3133 10.7728C19.4533 10.6895 19.5365 10.5977 19.5633 10.4979C19.5901 10.398 19.5915 10.2846 19.5684 10.1579C19.5447 10.0314 19.5213 9.94303 19.4981 9.89306Z" fill="white"/>
</svg>
