<svg width="37" height="31" viewBox="0 0 37 31" fill="none" xmlns="http://www.w3.org/2000/svg">
<path d="M36.4356 4.88743C35.9523 4.28857 35.233 3.94545 34.4629 3.94545H6.96781L6.72227 2.18578C6.54839 0.939723 5.46846 0 4.21022 0H2.05452C1.43198 0 0.927246 0.504666 0.927246 1.12727C0.927246 1.74988 1.43198 2.25455 2.05452 2.25455H4.21022C4.35 2.25455 4.47005 2.35896 4.48929 2.4974L4.86904 5.21899C4.86946 5.22216 4.86939 5.22526 4.86981 5.22843L7.07222 21.0103C7.07243 21.0116 7.07278 21.0129 7.073 21.0143L7.53215 24.3051C7.7061 25.5512 8.78603 26.4909 10.0443 26.4909H11.2666C11.1415 26.8437 11.0727 27.223 11.0727 27.6182C11.0727 29.4829 12.5898 31 14.4545 31C16.3192 31 17.8363 29.4829 17.8363 27.6182C17.8363 27.223 17.7676 26.8437 17.6424 26.4909H23.6666C23.5415 26.8437 23.4727 27.223 23.4727 27.6182C23.4727 29.4829 24.9898 31 26.8545 31C28.7192 31 30.2363 29.4829 30.2363 27.6182C30.2363 27.223 30.1676 26.8437 30.0424 26.4909H32.4909C33.1134 26.4909 33.6182 25.9862 33.6182 25.3636C33.6182 24.7411 33.1134 24.2364 32.4909 24.2364H10.0443C9.90449 24.2364 9.78444 24.132 9.76521 23.9935L9.48444 21.9818H31.6849C32.8727 21.9818 33.9155 21.1385 34.1656 19.9767L36.9429 7.01375C37.1042 6.26059 36.9197 5.4863 36.4356 4.88743ZM34.7235 7.54829L32.469 18.821C32.3618 19.3569 31.8911 19.7274 31.3648 19.7274C31.2915 19.7274 31.2171 19.7202 31.1425 19.7054C30.532 19.5833 30.1361 18.9894 30.2582 18.3789L32.5127 7.10619C32.6348 6.49563 33.2288 6.0996 33.8392 6.22184C34.4497 6.34401 34.8456 6.9378 34.7235 7.54829Z" fill="#158ACC"/>
</svg>
