<svg width="26" height="19" viewBox="0 0 26 19" fill="none" xmlns="http://www.w3.org/2000/svg">
<path d="M6.06701 13.4333C4.63312 13.4333 3.46704 14.5993 3.46704 16.0332C3.46704 17.4671 4.63312 18.6332 6.06701 18.6332C7.5009 18.6332 8.66698 17.4671 8.66698 16.0332C8.66698 14.5993 7.50085 13.4333 6.06701 13.4333ZM6.06701 17.7665C5.11106 17.7665 4.33371 16.9891 4.33371 16.0332C4.33371 15.0773 5.11111 14.2999 6.06701 14.2999C7.0229 14.2999 7.8003 15.0773 7.8003 16.0332C7.8003 16.9891 7.0229 17.7665 6.06701 17.7665Z" fill="white"/>
<path d="M20.8004 13.4333C19.3665 13.4333 18.2004 14.5993 18.2004 16.0332C18.2004 17.4671 19.3665 18.6332 20.8004 18.6332C22.2343 18.6332 23.4004 17.4671 23.4004 16.0332C23.4004 14.5993 22.2343 13.4333 20.8004 13.4333ZM20.8004 17.7665C19.8445 17.7665 19.0671 16.9891 19.0671 16.0332C19.0671 15.0773 19.8445 14.2999 20.8004 14.2999C21.7564 14.2999 22.5337 15.0773 22.5337 16.0332C22.5337 16.9891 21.7564 17.7665 20.8004 17.7665Z" fill="white"/>
<path d="M25.9313 11.0323L22.0314 4.96569C21.9517 4.84174 21.8143 4.76678 21.6669 4.76678H16.9004C16.6607 4.76678 16.467 4.96092 16.467 5.2001V16.0333C16.467 16.2729 16.6607 16.4666 16.9004 16.4666H18.6336V15.5999H17.3337V5.63346H21.4303L25.1336 11.3941V15.6H22.9669V16.4666H25.5669C25.8065 16.4666 26.0002 16.273 26.0002 16.0333V11.2667C26.0002 11.1839 25.9764 11.102 25.9313 11.0323Z" fill="white"/>
<path d="M19.0671 10.3999V7.36664H22.5337V6.49997H18.6337C18.3941 6.49997 18.2004 6.6941 18.2004 6.93328V10.8332C18.2004 11.0729 18.3941 11.2665 18.6337 11.2665H25.1337V10.3999H19.0671V10.3999Z" fill="white"/>
<path d="M16.8998 1.73346H0.433311C0.194134 1.73346 0 1.92759 0 2.16677V16.0333C0 16.2729 0.194134 16.4666 0.433311 16.4666H3.89995V15.5999H0.866673V2.60008H16.4665V15.5999H8.23321V16.4666H16.8998C17.1394 16.4666 17.3331 16.2729 17.3331 16.0333V2.16677C17.3331 1.92759 17.1394 1.73346 16.8998 1.73346Z" fill="white"/>
<path d="M3.03283 13.8666H0.432861V14.7333H3.03283V13.8666Z" fill="white"/>
<path d="M16.4664 13.8666H9.09985V14.7333H16.4664V13.8666Z" fill="white"/>
<path d="M25.5668 13.8666H23.8335V14.7333H25.5668V13.8666Z" fill="white"/>
<path d="M16.8999 3.46664H1.7334V4.33332H16.8999V3.46664Z" fill="white"/>
<path d="M6.49997 15.5999H5.6333V16.4665H6.49997V15.5999Z" fill="white"/>
<path d="M21.2331 15.5999H20.3665V16.4665H21.2331V15.5999Z" fill="white"/>
<path d="M7.80001 0H1.7334V0.866673H7.80001V0Z" fill="white"/>
</svg>
