<svg width="20" height="20" viewBox="0 0 20 20" fill="none" xmlns="http://www.w3.org/2000/svg">
<path d="M18.3333 4.33333H12V1.33333C12 0.596954 11.403 0 10.6667 0H1.33333C0.596954 0 0 0.596954 0 1.33333V18.6667C0 19.403 0.596954 20 1.33333 20H10.6667C11.403 20 12 19.403 12 18.6667V14.3333H18.3333C19.2534 14.3322 19.9989 13.5867 20 12.6667V6C19.9989 5.07998 19.2534 4.33444 18.3333 4.33333ZM19.3333 6V10H10C9.81591 10 9.66667 10.1492 9.66667 10.3333C9.66667 10.5174 9.81591 10.6667 10 10.6667H19.3333V12H6V10.6667H7.66667C7.85076 10.6667 8 10.5174 8 10.3333C8 10.1492 7.85076 10 7.66667 10H6V6C6 5.44772 6.44772 5 7 5H18.3333C18.8856 5 19.3333 5.44772 19.3333 6ZM8.564 0.666667L8.13667 1.12267C8.01037 1.2569 7.83431 1.33311 7.65 1.33333H4.35C4.16574 1.33334 3.9897 1.25708 3.86367 1.12267L3.43633 0.666667H8.564ZM10.6667 19.3333H1.33333C0.965144 19.3333 0.666667 19.0349 0.666667 18.6667V18.148C0.868449 18.268 1.09858 18.332 1.33333 18.3333H10.6667C10.9014 18.332 11.1316 18.268 11.3333 18.148V18.6667C11.3333 19.0349 11.0349 19.3333 10.6667 19.3333ZM11.3333 17C11.3333 17.3682 11.0349 17.6667 10.6667 17.6667H1.33333C0.965144 17.6667 0.666667 17.3682 0.666667 17V1.33333C0.666667 0.965144 0.965144 0.666667 1.33333 0.666667H2.52233L3.37733 1.57833C3.6296 1.84692 3.98152 1.99948 4.35 2H7.65C8.01847 1.9993 8.37039 1.84691 8.623 1.57867L9.47767 0.666667H10.6667C11.0349 0.666667 11.3333 0.965144 11.3333 1.33333V4.33333H7C6.07998 4.33444 5.33444 5.07998 5.33333 6V6.66667H4.33333C4.14924 6.66667 4 6.81591 4 7C4 7.18409 4.14924 7.33333 4.33333 7.33333H5.33333V9H3.66667C3.48257 9 3.33333 9.14924 3.33333 9.33333C3.33333 9.51743 3.48257 9.66667 3.66667 9.66667H5.33333V11.3333H4.33333C4.14924 11.3333 4 11.4826 4 11.6667C4 11.8508 4.14924 12 4.33333 12H5.33333V12.6667C5.33444 13.5867 6.07998 14.3322 7 14.3333H11.3333V17ZM18.3333 13.6667H7C6.44772 13.6667 6 13.219 6 12.6667H19.3333C19.3333 13.219 18.8856 13.6667 18.3333 13.6667Z" fill="#001A34"/>
<path d="M2.66659 7.33335H2.99992C3.18401 7.33335 3.33325 7.18412 3.33325 7.00002C3.33325 6.81593 3.18401 6.66669 2.99992 6.66669H2.66659C2.48249 6.66669 2.33325 6.81593 2.33325 7.00002C2.33325 7.18412 2.48249 7.33335 2.66659 7.33335Z" fill="#001A34"/>
<path d="M2.99992 11.3333H2.66659C2.48249 11.3333 2.33325 11.4826 2.33325 11.6666C2.33325 11.8507 2.48249 12 2.66659 12H2.99992C3.18401 12 3.33325 11.8507 3.33325 11.6666C3.33325 11.4826 3.18401 11.3333 2.99992 11.3333Z" fill="#001A34"/>
<path d="M2.66659 9.33333C2.66659 9.14924 2.51735 9 2.33325 9H1.66659C1.48249 9 1.33325 9.14924 1.33325 9.33333C1.33325 9.51743 1.48249 9.66667 1.66659 9.66667H2.33325C2.51735 9.66667 2.66659 9.51743 2.66659 9.33333Z" fill="#001A34"/>
<path d="M16.3334 7.66669C16.5802 7.66582 16.8178 7.57314 17.0001 7.40669C17.3996 7.76984 18.0153 7.75027 18.3909 7.36247C18.7666 6.97468 18.7666 6.3587 18.3909 5.97091C18.0153 5.58311 17.3996 5.56354 17.0001 5.92669C16.669 5.62575 16.1782 5.58139 15.7985 5.81806C15.4188 6.05473 15.2425 6.51484 15.3669 6.94464C15.4912 7.37445 15.886 7.66934 16.3334 7.66669ZM17.6667 6.33336C17.8508 6.33336 18.0001 6.4826 18.0001 6.66669C18.0001 6.85078 17.8508 7.00002 17.6667 7.00002C17.4826 7.00002 17.3334 6.85078 17.3334 6.66669C17.3334 6.4826 17.4826 6.33336 17.6667 6.33336ZM16.3334 6.33336C16.5175 6.33336 16.6667 6.4826 16.6667 6.66669C16.6667 6.85078 16.5175 7.00002 16.3334 7.00002C16.1493 7.00002 16.0001 6.85078 16.0001 6.66669C16.0001 6.4826 16.1493 6.33336 16.3334 6.33336Z" fill="#001A34"/>
<path d="M7.33333 7.66667H7.66667C7.85076 7.66667 8 7.51743 8 7.33333C8 7.14924 7.85076 7 7.66667 7H7.33333C7.14924 7 7 7.14924 7 7.33333C7 7.51743 7.14924 7.66667 7.33333 7.66667Z" fill="#001A34"/>
<path d="M9.00008 7.66667H10.0001C10.1842 7.66667 10.3334 7.51743 10.3334 7.33333C10.3334 7.14924 10.1842 7 10.0001 7H9.00008C8.81599 7 8.66675 7.14924 8.66675 7.33333C8.66675 7.51743 8.81599 7.66667 9.00008 7.66667Z" fill="#001A34"/>
<path d="M11 8.33331H7.33333C7.14924 8.33331 7 8.48255 7 8.66665C7 8.85074 7.14924 8.99998 7.33333 8.99998H11C11.1841 8.99998 11.3333 8.85074 11.3333 8.66665C11.3333 8.48255 11.1841 8.33331 11 8.33331Z" fill="#001A34"/>
</svg>
