<svg width="20" height="20" viewBox="0 0 20 20" fill="none" xmlns="http://www.w3.org/2000/svg">
<path d="M18.7337 11.7146H18.4344V9.01871C18.4344 8.59191 18.222 8.21402 17.8975 7.98441V7.61734C17.8975 7.08488 17.4644 6.65171 16.9319 6.65171H16.7084L17.5635 5.39702C17.8501 4.97648 17.7411 4.40112 17.3206 4.11448L11.5186 0.160576C11.3148 0.0217088 11.0693 -0.0295412 10.827 0.0164354C10.5847 0.0623338 10.3748 0.199795 10.236 0.403545L5.22817 7.7521H3.83461L4.17082 4.34859C4.17461 4.31023 4.19953 4.27698 4.2343 4.2639C4.66746 4.10058 5.04285 3.79558 5.29129 3.40511C5.31086 3.37437 5.34778 3.35679 5.38598 3.36066L7.57172 3.57659C7.72844 3.59179 7.86786 3.47765 7.88332 3.32101C7.89879 3.16437 7.78438 3.02487 7.62774 3.00941L5.44199 2.79347C5.18828 2.76862 4.94633 2.88554 4.81039 3.09913C4.62774 3.38624 4.35172 3.61046 4.03324 3.73054C3.79352 3.82093 3.62891 4.03624 3.6036 4.29253L3.26188 7.75206H2.89848L3.4302 2.36909C3.44934 2.17534 3.62227 2.033 3.81625 2.05241L8.23321 2.48874C8.38985 2.50386 8.52934 2.3898 8.54481 2.23316C8.56028 2.07651 8.44586 1.93702 8.28922 1.92155L3.87227 1.48523C3.36586 1.43526 2.91301 1.80655 2.86297 2.31304L2.43438 6.65171H1.70449C1.17207 6.65171 0.738868 7.08488 0.738868 7.61734V7.86773C0.303281 8.06828 0 8.50859 0 9.01871V18.7334C0 19.4318 0.568203 20 1.26668 20H17.1677C17.8662 20 18.4344 19.4318 18.4344 18.7334V16.0375H18.7337C19.087 16.0375 19.3743 15.7501 19.3743 15.3969V12.3553C19.3744 12.002 19.087 11.7146 18.7337 11.7146ZM16.9319 7.22171C17.1501 7.22167 17.3276 7.39917 17.3276 7.61738V7.76257C17.2752 7.75593 17.2219 7.75214 17.1677 7.75214H15.9586L16.32 7.22171H16.9319ZM10.707 0.724483C10.7601 0.646553 10.8404 0.593975 10.9331 0.576397C10.9552 0.572217 10.9774 0.570108 10.9995 0.570108C11.0697 0.570108 11.1383 0.591123 11.1976 0.631514L16.9996 4.58542C17.1604 4.69507 17.2022 4.91515 17.0925 5.07601L15.2689 7.75202H14.8312L15.7253 6.44003C15.8703 6.22726 15.8823 5.95648 15.7564 5.73331C15.5891 5.43683 15.5213 5.08773 15.5655 4.75027C15.5983 4.49921 15.4878 4.25413 15.2772 4.11062L12.2695 2.06093C12.0588 1.91737 11.7903 1.90421 11.5686 2.02659C11.2708 2.19105 10.9211 2.25562 10.584 2.20843C10.334 2.17335 10.0804 2.28624 9.93754 2.49581L6.35555 7.75206H5.91789L10.707 0.724483ZM10.8325 5.56398C9.59145 5.56398 8.5727 6.53167 8.48969 7.75206H7.0452L10.4084 2.81679C10.4085 2.81679 10.4085 2.81679 10.4085 2.81679C10.4276 2.7887 10.4593 2.77198 10.4918 2.77198C10.4961 2.77198 10.5005 2.7723 10.5048 2.77288C10.9633 2.83702 11.4389 2.74929 11.8441 2.52558C11.8759 2.50792 11.9169 2.51046 11.9484 2.53194L14.9562 4.58167C14.9877 4.60316 15.005 4.64034 15.0003 4.67644C14.9403 5.13538 15.0325 5.61015 15.26 6.01335C15.2782 6.04573 15.276 6.08722 15.2544 6.11906L14.1416 7.75202H13.1754C13.0924 6.53167 12.0736 5.56398 10.8325 5.56398ZM12.6039 7.7521H9.06114C9.14278 6.84628 9.90583 6.13398 10.8325 6.13398C11.7592 6.13394 12.5223 6.84628 12.6039 7.7521ZM1.30883 7.61734C1.30883 7.39913 1.48629 7.22163 1.70449 7.22163H2.37809L2.3257 7.75206H1.30883V7.61734ZM0.569961 9.01871C0.569961 8.63456 0.8825 8.32203 1.26668 8.32203H17.1677C17.5519 8.32203 17.8644 8.63456 17.8644 9.01871V9.80949H0.569961V9.01871ZM17.8644 18.7334C17.8644 19.1175 17.5519 19.43 17.1677 19.43H1.26668C0.8825 19.43 0.569961 19.1175 0.569961 18.7334V17.9426H2.10676C2.26418 17.9426 2.39172 17.815 2.39172 17.6576C2.39172 17.5002 2.26414 17.3727 2.10676 17.3727H0.569961V10.3794H17.8644V11.7146H15.1548H15.1548C14.301 11.7146 13.5615 12.2123 13.2105 12.9326C13.2093 12.935 13.208 12.9374 13.2068 12.9398C13.2038 12.9459 13.2013 12.9523 13.1984 12.9585C13.1566 13.0473 13.1202 13.1392 13.0907 13.234C13.0906 13.2343 13.0905 13.2345 13.0904 13.2348C13.0273 13.4375 12.9933 13.6528 12.9933 13.8761C12.9933 15.0679 13.9629 16.0375 15.1547 16.0375H15.1548H17.8644V17.3727H3.93153C3.7741 17.3727 3.64656 17.5002 3.64656 17.6576C3.64656 17.815 3.77414 17.9426 3.93153 17.9426H17.8644V18.7334ZM18.8044 15.3968C18.8044 15.4358 18.7727 15.4675 18.7337 15.4675H15.1549C14.5515 15.4675 14.0255 15.1301 13.7557 14.634C13.7434 14.6115 13.7317 14.5886 13.7205 14.5654C13.6981 14.5191 13.6779 14.4714 13.6601 14.4227C13.5975 14.2521 13.5634 14.068 13.5634 13.8761C13.5634 13.6841 13.5975 13.5 13.6601 13.3294C13.678 13.2807 13.6982 13.2331 13.7205 13.1867C13.7317 13.1635 13.7434 13.1406 13.7557 13.1181C14.0255 12.622 14.5515 12.2846 15.1549 12.2846H18.7337C18.7727 12.2846 18.8044 12.3163 18.8044 12.3553V15.3968Z" fill="#001A34"/>
</svg>
