<svg width="18" height="16" viewBox="0 0 18 16" fill="none" xmlns="http://www.w3.org/2000/svg">
<path d="M15.4016 8.24347H14.0095C14.1514 8.63195 14.2289 9.05119 14.2289 9.48814V14.7493C14.2289 14.9315 14.1972 15.1063 14.1395 15.269H16.4409C17.3006 15.269 17.9999 14.5696 17.9999 13.7099V10.8418C18 9.40911 16.8343 8.24347 15.4016 8.24347Z" fill="white"/>
<path d="M3.77104 9.48814C3.77104 9.05115 3.84856 8.63195 3.99045 8.24347H2.5984C1.16564 8.24347 0 9.40911 0 10.8419V13.71C0 14.5696 0.699365 15.269 1.55904 15.269H3.86044C3.80275 15.1063 3.77104 14.9315 3.77104 14.7493V9.48814Z" fill="white"/>
<path d="M10.5911 6.88977H7.40871C5.97595 6.88977 4.8103 8.05541 4.8103 9.48817V14.7493C4.8103 15.0363 5.04297 15.269 5.32998 15.269H12.6698C12.9569 15.269 13.1895 15.0363 13.1895 14.7493V9.48817C13.1895 8.05541 12.0239 6.88977 10.5911 6.88977Z" fill="white"/>
<path d="M8.9999 0C7.27682 0 5.875 1.40182 5.875 3.12494C5.875 4.29371 6.52008 5.31448 7.47275 5.8504C7.92461 6.10458 8.44556 6.24984 8.9999 6.24984C9.55425 6.24984 10.0752 6.10458 10.5271 5.8504C11.4798 5.31448 12.1248 4.29368 12.1248 3.12494C12.1248 1.40186 10.723 0 8.9999 0Z" fill="white"/>
<path d="M3.5128 2.91266C2.22414 2.91266 1.17578 3.96102 1.17578 5.24967C1.17578 6.53833 2.22414 7.58669 3.5128 7.58669C3.83968 7.58669 4.15095 7.51898 4.43372 7.39727C4.9226 7.18679 5.3257 6.8142 5.57514 6.3475C5.75022 6.01995 5.84981 5.64627 5.84981 5.24967C5.84981 3.96106 4.80145 2.91266 3.5128 2.91266Z" fill="white"/>
<path d="M14.4872 2.91266C13.1985 2.91266 12.1501 3.96102 12.1501 5.24967C12.1501 5.64631 12.2497 6.01998 12.4248 6.3475C12.6743 6.81424 13.0774 7.18682 13.5662 7.39727C13.849 7.51898 14.1603 7.58669 14.4872 7.58669C15.7758 7.58669 16.8242 6.53833 16.8242 5.24967C16.8242 3.96102 15.7758 2.91266 14.4872 2.91266Z" fill="white"/>
</svg>
