<svg width="20" height="20" viewBox="0 0 20 20" fill="none" xmlns="http://www.w3.org/2000/svg">
<path d="M19.4494 16.7995L14.8611 12.2109C14.1775 13.2741 13.2727 14.1784 12.2095 14.8621L16.7981 19.4508C17.5307 20.1832 18.7184 20.1832 19.4494 19.4508C20.182 18.7196 20.182 17.5319 19.4494 16.7995Z" fill="white"/>
<path d="M14.9999 7.50001C14.9999 3.35824 11.6419 0 7.50001 0C3.35824 0 0 3.35824 0 7.50001C0 11.6418 3.35824 14.9998 7.50001 14.9998C11.6419 14.9998 14.9999 11.6418 14.9999 7.50001ZM7.50001 13.1248C4.39819 13.1248 1.87505 10.6019 1.87505 7.50005C1.87505 4.39823 4.39819 1.87509 7.50001 1.87509C10.6017 1.87509 13.1251 4.39823 13.1251 7.50005C13.1251 10.6019 10.6017 13.1248 7.50001 13.1248Z" fill="white"/>
<path d="M3.12402 7.49995H4.37387C4.37387 5.77687 5.77589 4.37497 7.49893 4.37497V3.125C5.08691 3.125 3.12402 5.08789 3.12402 7.49995Z" fill="white"/>
</svg>
